<svg xmlns="http://www.w3.org/2000/svg" viewBox="0 0 118.533 135.467"><path fill="#fff" d="M16.442 25.853H97.14v82.4H16.442z"/><path fill="#44337a" d="M115.358 42.333a3.184 3.184 0 0 0 3.175-3.175V28.575a3.184 3.184 0 0 0-3.175-3.175h-5.291V12.7c0-7.011-5.689-12.7-12.7-12.7H12.7C5.689 0 0 5.689 0 12.7v110.067c0 7.011 5.689 12.7 12.7 12.7h84.667c7.011 0 12.7-5.689 12.7-12.7v-12.7h5.291a3.184 3.184 0 0 0 3.175-3.175V96.308a3.184 3.184 0 0 0-3.175-3.175h-5.291V76.2h5.291a3.184 3.184 0 0 0 3.175-3.175V62.442a3.184 3.184 0 0 0-3.175-3.175h-5.291V42.333zm-60.325-8.466c9.34 0 16.934 7.593 16.934 16.933s-7.594 16.933-16.934 16.933S38.1 60.14 38.1 50.8s7.594-16.933 16.933-16.933zM84.667 96.52c0 2.805-2.646 5.08-5.927 5.08H31.327c-3.281 0-5.927-2.275-5.927-5.08v-5.08c0-8.414 7.964-15.24 17.78-15.24h1.323a27.404 27.404 0 0 0 10.53 2.117c3.73 0 7.303-.768 10.53-2.117h1.324c9.816 0 17.78 6.826 17.78 15.24z"/></svg>