<?xml version="1.0" encoding="UTF-8" standalone="no"?>
<!-- Created with Inkscape (http://www.inkscape.org/) -->

<svg
   xmlns:dc="http://purl.org/dc/elements/1.1/"
   xmlns:cc="http://creativecommons.org/ns#"
   xmlns:rdf="http://www.w3.org/1999/02/22-rdf-syntax-ns#"
   xmlns:svg="http://www.w3.org/2000/svg"
   xmlns="http://www.w3.org/2000/svg"
   xmlns:sodipodi="http://sodipodi.sourceforge.net/DTD/sodipodi-0.dtd"
   xmlns:inkscape="http://www.inkscape.org/namespaces/inkscape"
   width="132.29166mm"
   height="116.67355mm"
   viewBox="0 0 132.29166 116.67355"
   version="1.1"
   id="svg8"
   inkscape:version="0.92.4 (5da689c313, 2019-01-14)"
   sodipodi:docname="no-wifi.svg">
  <defs
     id="defs2" />
  <sodipodi:namedview
     id="base"
     pagecolor="#ffffff"
     bordercolor="#666666"
     borderopacity="1.0"
     inkscape:pageopacity="0.0"
     inkscape:pageshadow="2"
     inkscape:zoom="0.98994949"
     inkscape:cx="84.390513"
     inkscape:cy="168.19148"
     inkscape:document-units="mm"
     inkscape:current-layer="layer1"
     showgrid="false"
     inkscape:window-width="1920"
     inkscape:window-height="1017"
     inkscape:window-x="-8"
     inkscape:window-y="-8"
     inkscape:window-maximized="1" />
  <metadata
     id="metadata5">
    <rdf:RDF>
      <cc:Work
         rdf:about="">
        <dc:format>image/svg+xml</dc:format>
        <dc:type
           rdf:resource="http://purl.org/dc/dcmitype/StillImage" />
        <dc:title></dc:title>
      </cc:Work>
    </rdf:RDF>
  </metadata>
  <g
     inkscape:label="Layer 1"
     inkscape:groupmode="layer"
     id="layer1"
     transform="translate(-34.884517,-63.953846)">
    <g
       id="g826"
       transform="translate(79.111782,-18.708867)">
      <path
         style="fill:#9f9f9f;stroke-width:0.26458332"
         d="m -25.326047,198.60864 c -0.445631,-0.39592 -2.207144,-1.95784 -3.914472,-3.47094 -1.707329,-1.5131 -3.069127,-2.90385 -3.026219,-3.09055 0.07153,-0.31124 10.418907,-12.04366 22.9294672,-25.99865 2.784147,-3.1056 5.062087,-5.78661 5.062087,-5.95779 0,-0.17118 -1.071562,-1.29946 -2.38125,-2.50728 -1.309687,-1.20783 -2.381249,-2.35145 -2.381249,-2.54139 0,-0.49995 3.621896,-3.86417 6.299017,-5.85089 2.72239801,-2.02031 8.170515,-4.78516 11.699033,-5.93709 1.3859608,-0.45247 2.6419618,-0.90585 2.7911128,-1.00751 0.798301,-0.54413 9.88629,-11.24182 9.74477,-11.4708 -0.33504,-0.54211 -7.793375,0.46484 -12.2117848,1.64871 -3.821279,1.02387 -5.743066,1.7549 -9.69270299,3.68698 -5.79821601,2.83637 -10.70963121,6.48106 -15.16963021,11.25716 -1.419024,1.51959 -2.676332,2.7629 -2.794019,2.7629 -0.482057,0 -8.128296,-6.63241 -8.128296,-7.05055 0,-0.87139 5.887529,-6.90306 9.586881,-9.8216 11.2939502,-8.91015 24.9998692,-13.81645 38.699572,-13.85325 3.71592,-0.01 5.26839,0.11404 8.76262,0.70004 0.78588,0.13179 1.00922,-0.0685 4.69635,-4.21247 2.12918,-2.39297 3.87124,-4.471 3.87124,-4.61784 0,-0.33274 -0.39342,-0.45639 -3.04504,-0.95706 -10.90722,-2.05949 -20.985342,-1.81511 -32.1719328,0.7801 -10.66765,2.47482 -20.7053862,7.13938 -29.4838022,13.70119 -3.362826,2.51369 -8.243407,6.70528 -9.891695,8.49528 -0.352789,0.38312 -0.811706,0.69658 -1.019817,0.69658 -0.571261,0 -7.731458,-6.87562 -7.731458,-7.42418 0,-0.53993 4.8482,-5.16871 8.995833,-8.58869 C -23.109279,107.9836 -6.5713538,100.80768 9.4831492,98.577088 14.67756,97.855385 16.71891,97.720486 22.44773,97.720346 c 7.70771,-1.89e-4 14.84289,0.946691 22.29556,2.958744 1.56677,0.423 2.9547,0.76908 3.08428,0.76908 0.12959,0 3.8188,-4.039873 8.19825,-8.977503 8.79272,-9.913387 8.69563,-9.807908 9.02754,-9.807908 0.28208,0 7.974606,6.552254 8.266986,7.041551 0.13802,0.230985 -1.97388,2.786664 -6.469806,7.829331 -3.67109,4.117529 -12.76446,14.332499 -20.20749,22.699949 -7.44302,8.36744 -16.14358,18.13057 -19.33455,21.69583 -3.19098,3.56526 -13.431323,15.05479 -22.7563188,25.53229 -26.1731752,29.40799 -28.4052672,31.88284 -28.7479922,31.87453 -0.175998,-0.004 -0.684604,-0.33169 -1.130236,-0.7276 z m 43.965911,-3.37151 c -2.39882,-0.65864 -4.673285,-1.98323 -6.441302,-3.75125 -7.5003838,-7.50038 -3.9283398,-20.26122 6.426549,-22.95833 4.642729,-1.20927 9.577899,0.22485 13.083039,3.80184 4.21362,4.3 5.14701,10.17371 2.4805,15.60964 -2.78395,5.67534 -9.67647,8.91047 -15.548786,7.2981 z M 43.15359,160.92167 c -4.74618,-4.43012 -9.61908,-6.86717 -16.53867,-8.27135 -0.40018,-0.0812 -0.72761,-0.27476 -0.72761,-0.43012 0,-0.51437 7.96572,-9.23245 8.4357,-9.23245 1.12711,0 7.1787,2.74984 9.79532,4.45099 4.0388,2.62576 8.75648,6.76115 8.75648,7.67569 0,0.40122 -6.52344,6.66442 -7.56786,7.26596 -0.25089,0.1445 -0.92498,-0.31213 -2.15336,-1.45872 z m 15.27747,-14.31531 c -4.79603,-4.7194 -8.88824,-7.72943 -14.15588,-10.41233 -1.37798,-0.70184 -2.55835,-1.41304 -2.62302,-1.58044 -0.10234,-0.26488 6.53061,-7.97986 7.23491,-8.41514 0.55873,-0.34532 6.08324,2.9109 10.28731,6.06347 4.22413,3.16762 11.162926,9.8864 11.162926,10.80897 0,0.35461 -7.725146,7.06511 -8.122236,7.05545 -0.11668,-0.003 -1.81948,-1.58683 -3.78401,-3.51998 z m 19.110776,-14.98553 c -4.88338,-4.67422 -11.908496,-9.77094 -17.854006,-12.95308 -1.41882,-0.75938 -2.57968,-1.49085 -2.57968,-1.62548 0,-0.35211 7.1486,-8.45035 7.45942,-8.45035 0.72138,0 7.905706,4.46164 11.685846,7.25719 5.12358,3.78907 11.81098,9.88221 11.81098,10.76143 0,0.55536 -7.11122,7.38512 -7.67292,7.36923 -0.21828,-0.006 -1.50062,-1.0677 -2.84964,-2.35894 z"
         id="path828"
         inkscape:connector-curvature="0" />
    </g>
  </g>
</svg>
