<svg xmlns="http://www.w3.org/2000/svg" viewBox="0 0 132.292 116.674"><path fill="#cbd5e0" d="M18.901 115.946c-.445-.396-2.207-1.958-3.914-3.471-1.708-1.513-3.07-2.904-3.026-3.09.071-.312 10.418-12.044 22.929-26 2.784-3.105 5.062-5.786 5.062-5.957 0-.171-1.071-1.3-2.381-2.507-1.31-1.208-2.381-2.352-2.381-2.542 0-.5 3.621-3.864 6.299-5.85 2.722-2.02 8.17-4.786 11.699-5.938 1.386-.452 2.642-.906 2.79-1.007.799-.544 9.887-11.242 9.746-11.471-.336-.542-7.794.465-12.212 1.649-3.822 1.024-5.743 1.755-9.693 3.687-5.798 2.836-10.71 6.48-15.17 11.257-1.419 1.52-2.676 2.763-2.794 2.763-.482 0-8.128-6.633-8.128-7.05 0-.872 5.888-6.904 9.587-9.822 11.294-8.91 25-13.817 38.7-13.854 3.715-.01 5.268.114 8.762.7.786.132 1.01-.068 4.697-4.212 2.129-2.393 3.87-4.471 3.87-4.618 0-.333-.393-.456-3.044-.957-10.908-2.06-20.986-1.815-32.172.78a79.098 79.098 0 0 0-29.484 13.701c-3.363 2.514-8.243 6.706-9.892 8.496-.353.383-.811.696-1.02.696-.57 0-7.731-6.875-7.731-7.424 0-.54 4.848-5.169 8.996-8.589 12.122-9.995 28.66-17.171 44.714-19.402 5.195-.721 7.236-.856 12.965-.856 7.708 0 14.843.946 22.296 2.958 1.566.423 2.954.77 3.084.77.13 0 3.819-4.04 8.198-8.978C109.046-.105 108.95 0 109.281 0c.282 0 7.974 6.552 8.267 7.042.138.23-1.974 2.786-6.47 7.829a35637.588 35637.588 0 0 0-20.208 22.7c-7.443 8.367-16.143 18.13-19.334 21.696a18759.987 18759.987 0 0 0-22.757 25.532c-26.173 29.408-28.405 31.883-28.748 31.875-.176-.004-.684-.332-1.13-.728zm43.966-3.372a14.753 14.753 0 0 1-6.441-3.75c-7.5-7.501-3.929-20.262 6.426-22.96 4.643-1.208 9.578.226 13.083 3.803 4.214 4.3 5.147 10.173 2.48 15.61-2.783 5.675-9.676 8.91-15.548 7.297zM87.381 78.26c-4.746-4.43-9.62-6.867-16.539-8.271-.4-.082-.727-.275-.727-.43 0-.515 7.965-9.233 8.435-9.233 1.127 0 7.179 2.75 9.796 4.451 4.038 2.626 8.756 6.761 8.756 7.676 0 .4-6.523 6.664-7.568 7.266-.25.144-.925-.312-2.153-1.459zm15.277-14.315c-4.796-4.72-8.888-7.73-14.156-10.413-1.378-.702-2.558-1.413-2.623-1.58-.102-.265 6.531-7.98 7.235-8.415.56-.346 6.084 2.91 10.288 6.063 4.224 3.168 11.163 9.887 11.163 10.81 0 .354-7.726 7.064-8.123 7.055-.116-.003-1.82-1.587-3.784-3.52zm19.111-14.986c-4.883-4.674-11.908-9.77-17.854-12.953-1.419-.76-2.58-1.49-2.58-1.625 0-.353 7.149-8.45 7.46-8.45.721 0 7.906 4.46 11.686 7.256 5.123 3.79 11.81 9.883 11.81 10.762 0 .555-7.11 7.385-7.672 7.37-.219-.007-1.5-1.069-2.85-2.36z"/></svg>
