<?xml version="1.0" standalone="no"?>
<!DOCTYPE svg PUBLIC "-//W3C//DTD SVG 20010904//EN"
 "http://www.w3.org/TR/2001/REC-SVG-20010904/DTD/svg10.dtd">
<svg version="1.0" xmlns="http://www.w3.org/2000/svg"
 width="1024.000000pt" height="1024.000000pt" viewBox="0 0 1024.000000 1024.000000"
 preserveAspectRatio="xMidYMid meet">
<metadata>
Created by potrace 1.11, written by Peter Selinger 2001-2013
</metadata>
<g transform="translate(0.000000,1024.000000) scale(0.100000,-0.100000)"
fill="#000000" stroke="none">
<path d="M1489 10236 c-2 -3 -22 -7 -44 -9 -22 -3 -55 -10 -73 -15 -18 -6 -36
-11 -40 -11 -22 -3 -87 -28 -157 -62 -117 -57 -216 -134 -303 -235 -60 -70
-62 -72 -62 -80 0 -4 -6 -15 -14 -23 -36 -41 -103 -189 -122 -272 -34 -142
-33 -52 -33 -4414 0 -4212 0 -4261 19 -4345 22 -92 27 -114 30 -117 2 -2 3 -6
4 -10 0 -5 14 -37 30 -73 48 -108 133 -230 210 -299 22 -20 44 -40 50 -46 20
-18 91 -70 111 -81 11 -6 36 -20 55 -31 45 -26 197 -84 230 -88 14 -2 45 -8
70 -14 60 -14 6601 -15 6680 -1 100 17 114 21 175 41 78 27 197 85 224 110 12
11 21 17 21 14 0 -9 41 27 120 105 72 71 140 150 140 164 0 4 11 23 24 44 26
38 81 169 90 212 3 14 10 44 16 68 6 24 12 75 15 113 3 39 7 75 10 80 4 5 2 9
-3 9 -5 0 -6 19 -3 43 3 23 4 60 1 82 -3 22 -2 55 1 73 4 17 3 34 -1 37 -4 2
-4 22 -1 42 4 21 4 52 0 70 -3 17 -3 37 1 44 4 6 4 23 0 38 -4 14 -4 36 0 47
5 11 5 27 0 34 -4 7 -4 24 0 39 4 14 4 35 0 46 -4 11 -4 29 0 40 4 11 4 29 0
40 -4 11 -6 23 -4 27 7 11 8 137 2 143 -3 3 -2 22 2 41 5 19 4 37 -1 40 -13 8
-3 21 21 27 11 3 18 1 14 -4 -3 -5 5 -5 19 0 16 6 28 6 35 -1 6 -6 12 -6 16 1
5 8 13 8 27 1 10 -6 19 -7 19 -3 0 10 41 10 57 0 7 -4 14 -3 18 2 3 6 15 7 28
2 12 -5 31 -5 42 -1 11 4 25 3 32 -2 7 -5 14 -5 18 2 4 7 12 7 26 0 10 -6 19
-7 19 -2 0 5 15 8 34 7 56 -3 176 71 176 108 0 9 4 17 8 17 26 0 32 92 32 507
0 484 -2 500 -67 567 -43 44 -83 64 -140 70 -13 1 -26 5 -29 9 -3 3 -16 2 -28
-2 -11 -5 -30 -5 -41 -1 -11 4 -29 4 -40 0 -11 -4 -29 -4 -40 0 -11 4 -28 3
-37 -2 -10 -5 -18 -5 -18 -1 0 4 -25 8 -55 8 -30 0 -55 -3 -55 -7 0 -4 -11 -3
-25 2 -16 6 -25 6 -25 -1 0 -6 -6 -6 -19 0 -19 11 -34 68 -20 77 4 2 4 17 0
32 -5 15 -5 36 -1 47 4 11 4 32 -1 47 -4 15 -4 30 1 33 4 3 4 21 0 40 -4 19
-4 37 0 40 5 3 5 18 1 33 -5 15 -5 36 -1 47 4 11 5 25 3 31 -7 19 -8 124 -2
124 4 0 3 15 -1 34 -4 19 -4 39 0 46 4 7 4 27 0 45 -4 18 -4 39 0 45 4 7 4 26
0 41 -5 16 -5 31 0 34 5 3 5 18 0 34 -4 15 -4 34 0 41 4 6 4 27 0 45 -4 18 -4
39 0 45 4 7 4 24 0 39 -4 14 -4 36 0 47 5 11 5 27 0 34 -4 7 -4 24 0 39 4 14
4 35 0 46 -4 11 -4 29 0 40 4 11 4 30 -1 43 -5 12 -7 23 -6 23 11 7 75 10 190
8 115 -1 269 6 295 14 41 13 114 76 139 120 16 29 18 71 21 480 3 377 1 456
-12 500 -29 98 -130 171 -236 168 -8 0 -35 0 -60 0 -25 0 -52 0 -60 0 -8 -1
-26 -1 -40 0 -14 0 -31 0 -37 0 -26 -2 -44 -2 -108 -1 -36 1 -71 -2 -77 -6 -7
-4 -10 -4 -7 0 4 4 3 23 -1 42 -4 19 -4 36 0 39 5 3 5 18 1 33 -5 15 -5 36 -1
47 4 11 4 32 -1 47 -4 15 -4 30 1 33 4 3 4 21 0 40 -4 19 -4 37 0 40 5 3 5 18
1 33 -5 15 -5 36 -1 47 4 11 5 25 3 31 -7 19 -8 124 -2 124 4 0 3 15 -1 34 -4
19 -4 39 0 46 4 7 4 27 0 45 -4 18 -4 39 0 45 4 7 4 24 0 39 -4 14 -4 36 0 47
5 11 5 27 0 34 -4 7 -4 24 0 39 4 14 4 35 0 46 -4 11 -4 29 0 40 4 11 4 29 0
40 -4 11 -6 23 -4 27 7 11 8 137 2 143 -3 3 -2 22 2 41 5 19 4 37 -1 40 -13 8
-3 21 21 27 11 3 18 1 14 -4 -3 -5 5 -5 19 0 16 6 28 6 35 -1 6 -6 12 -6 16 1
5 8 13 8 27 1 10 -6 19 -7 19 -3 0 10 41 10 57 0 7 -4 14 -3 18 2 3 6 15 7 28
2 12 -5 31 -5 42 -1 11 4 25 3 32 -2 7 -5 14 -5 18 2 4 7 12 7 26 0 10 -6 19
-7 19 -2 0 5 15 8 34 7 56 -3 176 71 176 108 0 9 4 17 8 17 26 0 32 92 32 507
0 484 -2 500 -67 567 -43 44 -83 64 -140 70 -13 1 -26 5 -29 9 -3 3 -16 2 -28
-2 -11 -5 -30 -5 -41 -1 -11 4 -29 4 -40 0 -11 -4 -29 -4 -40 0 -11 4 -28 3
-37 -2 -10 -5 -18 -5 -18 -1 0 4 -25 8 -55 8 -30 0 -55 -3 -55 -7 0 -4 -11 -3
-25 2 -16 6 -25 6 -25 -1 0 -6 -6 -6 -19 0 -19 11 -34 68 -20 77 4 2 4 17 0
32 -5 15 -5 36 -1 47 4 11 4 32 -1 47 -4 15 -4 30 1 33 4 3 4 21 0 40 -4 19
-4 37 0 40 5 3 5 18 1 33 -5 15 -5 36 -1 47 4 11 5 25 3 31 -7 19 -8 124 -2
124 4 0 3 15 -1 34 -4 19 -4 39 0 46 4 7 4 27 0 45 -4 18 -4 39 1 46 4 7 5 17
3 21 -7 11 -9 116 -2 123 3 3 2 23 -2 45 -4 23 -3 40 2 40 5 0 6 4 3 10 -3 5
-8 42 -10 82 -4 62 -12 105 -40 208 -2 8 -4 16 -5 18 -2 1 -3 5 -5 10 -28 99
-132 266 -222 355 -129 128 -297 224 -448 258 -27 6 -59 14 -70 17 -22 7
-6669 15 -6676 8z m3316 -2556 c4 6 11 7 18 3 6 -3 38 -8 71 -9 73 -3 135 -10
156 -18 8 -3 26 -7 40 -10 44 -7 163 -46 177 -57 7 -6 13 -9 13 -6 0 10 172
-80 231 -120 115 -77 251 -205 309 -289 53 -76 90 -136 90 -143 0 -5 3 -11 8
-13 8 -3 81 -162 86 -188 1 -3 4 -10 8 -16 4 -6 10 -25 13 -42 3 -17 10 -44
16 -59 6 -15 12 -41 14 -58 2 -16 7 -43 11 -60 3 -16 8 -61 9 -100 2 -38 4
-72 5 -75 1 -3 1 -9 0 -15 -6 -30 -5 -65 3 -65 4 0 6 -4 3 -9 -6 -9 -11 -40
-20 -116 -3 -22 -8 -51 -11 -65 -3 -14 -8 -38 -11 -54 -2 -16 -7 -33 -10 -38
-3 -4 -7 -16 -9 -25 -15 -70 -111 -279 -142 -311 -7 -7 -13 -18 -13 -23 0 -6
-6 -16 -12 -24 -7 -7 -24 -28 -38 -46 -14 -18 -33 -41 -42 -51 -10 -10 -18
-20 -18 -22 0 -7 -101 -105 -143 -140 -160 -128 -315 -207 -506 -256 -110 -28
-175 -35 -321 -35 -129 1 -179 5 -265 25 -27 6 -57 13 -65 15 -71 15 -340 139
-340 156 0 5 -7 9 -15 9 -8 0 -24 9 -35 20 -11 11 -23 20 -26 20 -29 0 -274
250 -274 279 0 6 -4 11 -9 11 -19 0 -137 217 -160 295 -7 22 -16 49 -21 60 -5
11 -12 34 -16 50 -4 17 -8 35 -10 40 -12 42 -26 141 -31 215 -2 30 -4 60 -4
65 -3 28 12 196 21 240 6 28 12 61 15 74 9 50 58 183 92 254 31 65 89 164 103
177 3 3 16 21 30 40 60 85 152 176 263 260 50 38 98 70 105 70 6 0 12 5 12 10
0 6 4 10 10 10 5 0 41 15 80 34 39 19 87 40 108 47 20 6 42 15 48 20 6 5 14 6
17 3 3 -3 12 -2 19 2 15 9 16 10 78 23 68 15 139 25 192 25 27 1 48 5 48 9 0
4 9 3 19 -3 14 -7 22 -7 26 0z m-923 -3205 c13 14 153 2 173 -15 6 -5 20 -11
31 -13 10 -2 27 -7 36 -11 9 -4 22 -9 30 -10 7 -2 21 -6 30 -10 9 -4 22 -8 30
-10 7 -1 19 -5 26 -10 7 -4 16 -5 19 -2 3 3 15 0 27 -6 11 -7 37 -13 56 -15
19 -2 39 -8 45 -13 7 -6 14 -8 17 -5 3 3 27 1 54 -5 70 -14 129 -21 211 -24
40 -1 76 -5 79 -9 4 -3 11 -4 16 -1 5 3 60 8 121 10 136 4 184 9 292 30 11 2
31 6 45 9 14 3 35 7 48 10 12 3 32 7 44 10 12 3 52 14 88 26 36 11 73 23 84
25 10 2 23 7 30 12 6 5 30 14 53 21 37 10 66 12 143 10 8 0 24 0 35 1 44 1
115 -7 292 -34 7 -1 16 -5 19 -9 4 -4 15 -7 25 -7 35 0 178 -53 289 -108 63
-31 120 -60 125 -65 6 -4 42 -31 80 -59 260 -193 428 -474 459 -768 1 -14 6
-31 10 -38 4 -7 4 -12 -1 -12 -4 0 -8 -13 -8 -30 0 -16 4 -30 8 -30 4 0 3 -9
-3 -20 -8 -14 -8 -20 0 -20 8 0 8 -6 0 -20 -8 -14 -8 -20 0 -20 7 0 8 -6 1
-17 -11 -22 -11 -34 0 -55 6 -10 5 -19 -1 -23 -7 -4 -7 -12 -1 -23 6 -10 6
-23 0 -34 -5 -10 -6 -18 -2 -18 9 0 8 -99 -2 -174 -11 -87 -81 -199 -150 -242
-72 -44 -105 -63 -105 -59 0 2 -15 -2 -34 -10 -19 -8 -58 -17 -86 -19 -28 -2
-54 -7 -57 -10 -3 -2 -16 -1 -29 4 -15 6 -26 6 -30 -1 -3 -6 -10 -6 -17 -1 -7
5 -21 6 -32 2 -11 -4 -30 -4 -42 1 -15 5 -23 5 -23 -2 0 -6 -6 -6 -17 -1 -10
5 -27 6 -38 2 -11 -4 -30 -4 -42 1 -15 5 -23 5 -23 -2 0 -6 -7 -6 -19 1 -14 7
-22 7 -26 0 -4 -7 -11 -7 -18 -2 -7 5 -21 6 -32 2 -11 -4 -30 -4 -42 1 -15 5
-23 5 -23 -2 0 -6 -7 -6 -19 1 -14 7 -22 7 -26 0 -4 -7 -11 -7 -18 -2 -7 5
-21 6 -32 2 -11 -4 -30 -4 -42 1 -15 5 -23 5 -23 -2 0 -6 -7 -6 -19 1 -14 7
-22 7 -26 0 -4 -7 -11 -7 -18 -2 -7 5 -21 6 -32 2 -11 -4 -30 -4 -42 1 -15 5
-23 5 -23 -2 0 -6 -7 -6 -19 1 -14 7 -22 7 -26 0 -4 -7 -11 -7 -18 -2 -7 5
-21 6 -32 2 -11 -4 -30 -4 -42 1 -15 5 -23 5 -23 -2 0 -6 -7 -6 -19 1 -14 7
-22 7 -26 0 -4 -7 -11 -7 -18 -2 -7 5 -21 6 -32 2 -11 -4 -30 -4 -42 1 -15 5
-23 5 -23 -2 0 -6 -7 -6 -19 1 -14 7 -22 7 -26 0 -4 -7 -11 -7 -18 -2 -7 5
-21 6 -32 2 -11 -4 -30 -4 -42 1 -15 5 -23 5 -23 -2 0 -6 -7 -6 -19 1 -14 7
-22 7 -26 0 -4 -7 -11 -7 -18 -2 -7 5 -21 6 -32 2 -11 -4 -30 -4 -42 1 -15 5
-23 5 -23 -2 0 -6 -7 -6 -19 1 -12 6 -22 6 -26 1 -5 -9 -42 -7 -53 3 -2 3 -13
1 -23 -5 -13 -7 -19 -6 -19 1 0 6 -5 8 -11 4 -14 -9 -153 -9 -167 0 -6 3 -14
2 -17 -4 -5 -7 -11 -8 -19 -1 -7 6 -17 6 -26 1 -8 -5 -21 -5 -31 1 -11 6 -20
5 -24 -1 -4 -7 -12 -7 -23 -1 -10 6 -23 6 -34 0 -10 -6 -19 -5 -23 1 -4 7 -13
7 -26 0 -10 -6 -19 -7 -19 -3 0 4 -11 8 -25 8 -14 0 -25 -2 -25 -5 0 -7 -165
-4 -184 3 -9 4 -18 2 -22 -4 -4 -7 -10 -7 -18 0 -7 6 -17 6 -26 1 -8 -5 -21
-5 -31 1 -11 6 -20 5 -24 -1 -4 -7 -12 -7 -23 -1 -10 6 -23 6 -34 0 -10 -6
-19 -5 -23 1 -4 7 -13 7 -26 0 -10 -6 -19 -7 -19 -3 0 4 -11 8 -25 8 -14 0
-25 -2 -25 -5 0 -7 -165 -4 -184 3 -9 4 -18 2 -22 -4 -4 -7 -10 -7 -18 0 -7 6
-17 6 -26 1 -8 -5 -21 -5 -31 1 -11 6 -20 5 -24 -1 -4 -7 -12 -7 -23 -1 -10 6
-23 6 -34 0 -10 -6 -19 -5 -23 1 -4 7 -13 7 -26 0 -10 -6 -19 -7 -19 -3 0 4
-11 8 -25 8 -14 0 -25 -2 -25 -5 0 -7 -165 -4 -184 3 -9 4 -18 2 -22 -4 -4 -7
-10 -7 -18 0 -7 6 -17 6 -26 1 -8 -5 -21 -5 -31 1 -11 6 -20 5 -24 -1 -4 -7
-12 -7 -23 -1 -10 6 -23 6 -34 0 -10 -6 -19 -5 -23 1 -4 7 -13 7 -26 0 -10 -6
-19 -7 -19 -3 0 4 -11 8 -25 8 -14 0 -25 -2 -25 -5 0 -7 -91 -2 -98 5 -2 2
-13 0 -23 -6 -11 -5 -19 -6 -19 -2 0 4 -19 8 -43 7 -23 0 -46 2 -52 5 -5 3
-19 7 -30 8 -47 7 -162 74 -207 121 -27 28 -48 55 -48 61 0 6 -4 11 -9 11 -13
0 -41 82 -46 131 -2 24 -4 44 -5 44 -1 0 -3 12 -4 28 -1 15 2 27 6 27 4 0 3
11 -2 25 -6 16 -6 25 0 25 6 0 6 9 0 25 -6 16 -6 25 0 25 6 0 6 9 0 25 -6 15
-6 26 1 30 6 4 6 13 0 23 -6 10 -6 23 0 34 5 10 6 18 2 18 -10 0 -7 75 2 90 3
6 1 10 -5 10 -6 0 -8 5 -5 10 4 6 8 36 10 68 4 70 15 139 28 172 3 8 11 33 17
55 6 22 15 49 20 60 5 11 19 43 31 70 65 151 239 349 406 463 100 68 267 151
348 172 28 7 56 17 63 23 6 5 12 7 12 3 0 -3 12 -1 28 5 15 6 38 13 52 15 89
15 140 22 209 29 30 2 56 7 59 9 2 3 12 1 22 -4 10 -5 19 -7 22 -5z"/>
</g>
</svg>
